# xmcd
#
# Track frame offsets:
#	150
#	16314
#	36379
#	55519
#	78608
#	97648
#	116987
#	131202
#	148841
#	159031
#	170933
#	184860
#	207674
#	224176
#	239891
#	251568
#	273457
#	290259
#	305124
#
# Disc length: 4231 seconds
#
# Revision: 1
# Processed by: cddbd v1.5.2PL0 Copyright (c) Steve Scherf et al.
# Submitted via: audiograbber 1.83.01
#
DISCID=31108513
DTITLE=Various Artist - SUPERSTAR CHRISTMAS
DYEAR=1998
DGENRE=CHRISTMAS
TTITLE0=JOHN LENNON and YOKO ONO - HAPPY XMAS (WAR IS OVER
TTITLE1=MARIAH CAREY - O HOLY NIGHT
TTITLE2=CELINE DION - THE CHRISTMAS SONG (CHESTNUTS ROASTING ON AN OPEN FIRE)
TTITLE3=LUTHER VANDROSS - HAVE YOURSELF A MERRY LITTLE CHRISTMAS
TTITLE4=3T - ENDLESS CHRISTMAS
TTITLE5=BACKSTREET BOYS - CHRISTMAS TIME
TTITLE6=HUMAN NATURE - LAST CHRISTMAS
TTITLE7=BAND AID - DO THEY KNOW IT'S CHRISTMAS
TTITLE8=TONY BENNETT - WINTER WONDERLAND
TTITLE9=FRANK SINATRA - LET IT SNOW, LET IT SNOW
TTITLE10=BING CROSBY - WHITE CHRISTMAS
TTITLE11=GLORIA ESTEFAN - CHRISTMAS THROUGHT YOUR EYES
TTITLE12=NELL DIAMOND - YOU MAKE IT FEEL LIKE CHRISTMAS
TTITLE13=AMY GRANT - I'LL BE HOME FOR CHRISTMAS
TTITLE14=BOYZ II MEN - SILENT NIGHT
TTITLE15=BRUCE SPRINGSTEEN and THE E STREET BAND - MERRY CHRISTMAS BABY
TTITLE16=CYNDI LAUPER - EARLY CHRISTMAS
TTITLE17=JACKSON 5 - LITTLE DRUMMER BOY
TTITLE18=BARBRA STREISAND - THE LORD'S PRAYER
EXTD=
EXTT0=
EXTT1=
EXTT2=
EXTT3=
EXTT4=
EXTT5=
EXTT6=
EXTT7=
EXTT8=
EXTT9=
EXTT10=
EXTT11=
EXTT12=
EXTT13=
EXTT14=
EXTT15=
EXTT16=
EXTT17=
EXTT18=
PLAYORDER=
